<svg width="71" height="71" viewBox="0 0 71 71" fill="none" xmlns="http://www.w3.org/2000/svg">
<path d="M29.5832 6.65625C28.9947 6.65625 28.4304 6.89001 28.0143 7.30611C27.5982 7.7222 27.3644 8.28655 27.3644 8.875V11.0938H14.7915C14.2031 11.0938 13.6387 11.3275 13.2226 11.7436C12.8065 12.1597 12.5728 12.7241 12.5728 13.3125C12.5728 13.9009 12.8065 14.4653 13.2226 14.8814C13.6387 15.2975 14.2031 15.5312 14.7915 15.5312H56.2082C56.7966 15.5312 57.361 15.2975 57.7771 14.8814C58.1932 14.4653 58.4269 13.9009 58.4269 13.3125C58.4269 12.7241 58.1932 12.1597 57.7771 11.7436C57.361 11.3275 56.7966 11.0938 56.2082 11.0938H43.6353V8.875C43.6353 8.28655 43.4015 7.7222 42.9854 7.30611C42.5693 6.89001 42.005 6.65625 41.4165 6.65625H29.5832ZM29.5832 31.5062C30.1716 31.5062 30.736 31.74 31.1521 32.1561C31.5682 32.5722 31.8019 33.1365 31.8019 33.725V54.4333C31.8019 55.0218 31.5682 55.5861 31.1521 56.0022C30.736 56.4183 30.1716 56.6521 29.5832 56.6521C28.9947 56.6521 28.4304 56.4183 28.0143 56.0022C27.5982 55.5861 27.3644 55.0218 27.3644 54.4333V33.725C27.3644 33.1365 27.5982 32.5722 28.0143 32.1561C28.4304 31.74 28.9947 31.5062 29.5832 31.5062ZM43.6353 33.725C43.6353 33.1365 43.4015 32.5722 42.9854 32.1561C42.5693 31.74 42.005 31.5062 41.4165 31.5062C40.8281 31.5062 40.2637 31.74 39.8476 32.1561C39.4315 32.5722 39.1978 33.1365 39.1978 33.725V54.4333C39.1978 55.0218 39.4315 55.5861 39.8476 56.0022C40.2637 56.4183 40.8281 56.6521 41.4165 56.6521C42.005 56.6521 42.5693 56.4183 42.9854 56.0022C43.4015 55.5861 43.6353 55.0218 43.6353 54.4333V33.725Z" fill="black"/>
<path fill-rule="evenodd" clip-rule="evenodd" d="M17.7236 23.4211C17.7841 22.8782 18.0426 22.3767 18.4499 22.0126C18.8571 21.6486 19.3843 21.4475 19.9305 21.4479H51.0699C51.6162 21.4475 52.1434 21.6486 52.5506 22.0126C52.9578 22.3767 53.2164 22.8782 53.2768 23.4211L53.8685 28.752C54.9424 38.411 54.9424 48.1587 53.8685 57.8206L53.8093 58.3442C53.6035 60.2085 52.7819 61.9509 51.4745 63.2958C50.1672 64.6406 48.4487 65.5112 46.591 65.7697C39.2331 66.8013 31.7673 66.8013 24.4094 65.7697C22.5517 65.5112 20.8333 64.6406 19.5259 63.2958C18.2186 61.9509 17.397 60.2085 17.1911 58.3442L17.1319 57.8206C16.0589 48.1608 16.0589 38.4119 17.1319 28.752L17.7236 23.4211ZM21.9156 25.8854L21.5428 29.2402C20.5059 38.5746 20.5059 47.9951 21.5428 57.3295L21.602 57.8532C21.6984 58.7379 22.0875 59.565 22.7076 60.2033C23.3277 60.8416 24.1432 61.2546 25.0248 61.3765C31.9768 62.3498 39.0266 62.3498 45.9757 61.3765C46.8568 61.2547 47.6719 60.8422 48.292 60.2045C48.912 59.5667 49.3014 58.7403 49.3985 57.8561L49.4576 57.3295C50.4931 47.996 50.4931 38.5737 49.4576 29.2402L49.0849 25.8854H21.9156Z" fill="black"/>
</svg>
