<svg width="473" height="304" viewBox="0 0 473 304" fill="none" xmlns="http://www.w3.org/2000/svg">
<g filter="url(#filter0_d_26_106)">
<path d="M9 40C9 24.536 21.536 12 37 12H390C405.464 12 418 24.536 418 40V242C418 257.464 405.464 270 390 270H37C21.536 270 9 257.464 9 242V40Z" fill="#101010"/>
</g>
<mask id="mask0_26_106" style="mask-type:alpha" maskUnits="userSpaceOnUse" x="-1" y="75" width="475" height="229">
<path d="M265.5 96.1475C237.833 27.9809 17 154.648 17 154.648L0 288.148L418.5 303.148C450.167 253.648 516.497 249.022 431 227.648C353 208.147 293.167 164.314 265.5 96.1475Z" fill="#D9D9D9" stroke="black" stroke-linecap="round" stroke-dasharray="2 2"/>
</mask>
<g mask="url(#mask0_26_106)">
<g filter="url(#filter1_d_26_106)">
<path d="M12.5 33.1475C12.5 17.6835 25.036 5.14746 40.5 5.14746H393.5C408.964 5.14746 421.5 17.6835 421.5 33.1475V235.147C421.5 250.611 408.964 263.147 393.5 263.147H40.5C25.036 263.147 12.5 250.611 12.5 235.147V33.1475Z" fill="url(#paint0_linear_26_106)"/>
</g>
<path d="M131.67 139.988L133.506 103.268H170.838L169.41 113.978H144.726L144.114 126.116C145.202 125.572 146.392 125.198 147.684 124.994C148.976 124.722 150.302 124.586 151.662 124.586C159.278 124.586 164.956 126.728 168.696 131.012C172.504 135.296 174.408 140.294 174.408 146.006C174.408 152.67 172.164 158.11 167.676 162.326C163.188 166.61 157.068 168.752 149.316 168.752C145.508 168.752 141.632 168.106 137.688 166.814C133.744 165.522 130.276 164.06 127.284 162.428L133.812 153.146C136.532 154.642 139.082 155.764 141.462 156.512C143.842 157.26 146.562 157.634 149.622 157.634C153.226 157.634 156.252 156.614 158.7 154.574C161.148 152.466 162.372 149.61 162.372 146.006C162.372 142.674 161.386 140.056 159.414 138.152C157.51 136.18 155.096 135.194 152.172 135.194C149.792 135.194 147.854 135.738 146.358 136.826C144.862 137.846 143.876 138.9 143.4 139.988H131.67ZM183.986 131.93C183.986 122.614 186.502 115.304 191.534 110C196.566 104.628 202.856 101.942 210.404 101.942C218.02 101.942 224.276 104.526 229.172 109.694C234.136 114.862 236.618 122.206 236.618 131.726C236.618 141.11 234.068 148.556 228.968 154.064C223.936 159.572 217.714 162.326 210.302 162.326C202.822 162.326 196.566 159.674 191.534 154.37C186.502 148.998 183.986 141.518 183.986 131.93ZM196.124 131.624C196.124 137.948 197.518 142.776 200.306 146.108C203.162 149.372 206.528 151.004 210.404 151.004C214.144 151.004 217.442 149.372 220.298 146.108C223.222 142.844 224.684 138.186 224.684 132.134C224.684 125.878 223.256 121.152 220.4 117.956C217.612 114.76 214.246 113.162 210.302 113.162C206.494 113.162 203.162 114.76 200.306 117.956C197.518 121.084 196.124 125.64 196.124 131.624ZM311.901 88.988L281.505 161H268.143L298.539 88.988H311.901ZM245.295 106.634C245.295 101.33 247.029 97.148 250.497 94.088C254.033 90.96 257.943 89.396 262.227 89.396C266.579 89.396 270.489 90.926 273.957 93.986C277.425 96.978 279.159 101.194 279.159 106.634C279.159 111.938 277.391 116.154 273.855 119.282C270.387 122.41 266.511 123.974 262.227 123.974C257.943 123.974 254.033 122.444 250.497 119.384C247.029 116.324 245.295 112.074 245.295 106.634ZM256.413 106.532C256.413 109.252 256.957 111.258 258.045 112.55C259.133 113.842 260.527 114.488 262.227 114.488C263.723 114.488 265.083 113.842 266.307 112.55C267.531 111.19 268.143 109.252 268.143 106.736C268.143 104.22 267.565 102.316 266.409 101.024C265.253 99.664 263.859 98.984 262.227 98.984C260.731 98.984 259.371 99.63 258.147 100.922C256.991 102.214 256.413 104.084 256.413 106.532ZM301.599 143.762C301.599 138.322 303.333 134.106 306.801 131.114C310.337 128.054 314.247 126.524 318.531 126.524C322.815 126.524 326.657 128.02 330.057 131.012C333.525 133.936 335.259 138.152 335.259 143.66C335.259 148.964 333.525 153.18 330.057 156.308C326.589 159.436 322.747 161 318.531 161C314.247 161 310.337 159.504 306.801 156.512C303.333 153.452 301.599 149.202 301.599 143.762ZM312.615 143.558C312.615 146.278 313.159 148.318 314.247 149.678C315.403 150.97 316.831 151.616 318.531 151.616C320.027 151.616 321.353 150.936 322.509 149.576C323.733 148.216 324.345 146.278 324.345 143.762C324.345 141.246 323.767 139.342 322.611 138.05C321.455 136.69 320.095 136.01 318.531 136.01C317.035 136.01 315.675 136.656 314.451 137.948C313.227 139.24 312.615 141.11 312.615 143.558Z" fill="white"/>
</g>
<defs>
<filter id="filter0_d_26_106" x="8.7" y="0.7" width="433.6" height="282.6" filterUnits="userSpaceOnUse" color-interpolation-filters="sRGB">
<feFlood flood-opacity="0" result="BackgroundImageFix"/>
<feColorMatrix in="SourceAlpha" type="matrix" values="0 0 0 0 0 0 0 0 0 0 0 0 0 0 0 0 0 0 127 0" result="hardAlpha"/>
<feOffset dx="12" dy="1"/>
<feGaussianBlur stdDeviation="6.15"/>
<feComposite in2="hardAlpha" operator="out"/>
<feColorMatrix type="matrix" values="0 0 0 0 0 0 0 0 0 0 0 0 0 0 0 0 0 0 0.25 0"/>
<feBlend mode="normal" in2="BackgroundImageFix" result="effect1_dropShadow_26_106"/>
<feBlend mode="normal" in="SourceGraphic" in2="effect1_dropShadow_26_106" result="shape"/>
</filter>
<filter id="filter1_d_26_106" x="7.2" y="-1.15254" width="433.6" height="282.6" filterUnits="userSpaceOnUse" color-interpolation-filters="sRGB">
<feFlood flood-opacity="0" result="BackgroundImageFix"/>
<feColorMatrix in="SourceAlpha" type="matrix" values="0 0 0 0 0 0 0 0 0 0 0 0 0 0 0 0 0 0 127 0" result="hardAlpha"/>
<feOffset dx="7" dy="6"/>
<feGaussianBlur stdDeviation="6.15"/>
<feComposite in2="hardAlpha" operator="out"/>
<feColorMatrix type="matrix" values="0 0 0 0 0 0 0 0 0 0 0 0 0 0 0 0 0 0 0.25 0"/>
<feBlend mode="normal" in2="BackgroundImageFix" result="effect1_dropShadow_26_106"/>
<feBlend mode="normal" in="SourceGraphic" in2="effect1_dropShadow_26_106" result="shape"/>
</filter>
<linearGradient id="paint0_linear_26_106" x1="217.5" y1="68.6475" x2="217" y2="263.147" gradientUnits="userSpaceOnUse">
<stop stop-color="#92FFFF"/>
<stop offset="0.92" stop-color="#00184A"/>
</linearGradient>
</defs>
</svg>
